<mxfile host="app.diagrams.net" modified="2022-03-11T03:31:44.197Z" agent="5.0 (Windows NT 10.0; Win64; x64) AppleWebKit/537.36 (KHTML, like Gecko) Chrome/99.0.4844.51 Safari/537.36 Edg/99.0.1150.30" etag="AZOlO66arvgYAvsPnLc9" version="17.1.0" type="github">
  <diagram id="80qzzFY0ihxLl6Sb8CqB" name="Page-1">
    <mxGraphModel dx="1422" dy="794" grid="1" gridSize="10" guides="1" tooltips="1" connect="1" arrows="1" fold="1" page="1" pageScale="1" pageWidth="827" pageHeight="1169" math="0" shadow="0">
      <root>
        <mxCell id="0" />
        <mxCell id="1" parent="0" />
        <mxCell id="P3pSzVhwm7MZR02G-BXW-17" value="" style="rounded=0;whiteSpace=wrap;html=1;" parent="1" vertex="1">
          <mxGeometry x="40" y="96" width="60" height="60" as="geometry" />
        </mxCell>
        <mxCell id="P3pSzVhwm7MZR02G-BXW-44" value="" style="rounded=0;whiteSpace=wrap;html=1;" parent="1" vertex="1">
          <mxGeometry x="100" y="96" width="60" height="60" as="geometry" />
        </mxCell>
        <mxCell id="P3pSzVhwm7MZR02G-BXW-45" value="" style="rounded=0;whiteSpace=wrap;html=1;" parent="1" vertex="1">
          <mxGeometry x="160" y="96" width="60" height="60" as="geometry" />
        </mxCell>
        <mxCell id="P3pSzVhwm7MZR02G-BXW-46" value="" style="rounded=0;whiteSpace=wrap;html=1;" parent="1" vertex="1">
          <mxGeometry x="220" y="96" width="60" height="60" as="geometry" />
        </mxCell>
        <mxCell id="P3pSzVhwm7MZR02G-BXW-48" value="" style="rounded=0;whiteSpace=wrap;html=1;dashed=1;" parent="1" vertex="1">
          <mxGeometry x="280" y="96" width="60" height="60" as="geometry" />
        </mxCell>
        <mxCell id="P3pSzVhwm7MZR02G-BXW-49" value="" style="rounded=0;whiteSpace=wrap;html=1;dashed=1;" parent="1" vertex="1">
          <mxGeometry x="340" y="96" width="60" height="60" as="geometry" />
        </mxCell>
        <mxCell id="P3pSzVhwm7MZR02G-BXW-50" value="" style="rounded=0;whiteSpace=wrap;html=1;dashed=1;" parent="1" vertex="1">
          <mxGeometry x="400" y="96" width="60" height="60" as="geometry" />
        </mxCell>
        <mxCell id="P3pSzVhwm7MZR02G-BXW-51" value="" style="rounded=0;whiteSpace=wrap;html=1;dashed=1;" parent="1" vertex="1">
          <mxGeometry x="460" y="96" width="60" height="60" as="geometry" />
        </mxCell>
        <mxCell id="P3pSzVhwm7MZR02G-BXW-52" value="" style="rounded=0;whiteSpace=wrap;html=1;" parent="1" vertex="1">
          <mxGeometry x="520" y="96" width="60" height="60" as="geometry" />
        </mxCell>
        <mxCell id="P3pSzVhwm7MZR02G-BXW-53" value="" style="rounded=0;whiteSpace=wrap;html=1;" parent="1" vertex="1">
          <mxGeometry x="580" y="96" width="60" height="60" as="geometry" />
        </mxCell>
        <mxCell id="P3pSzVhwm7MZR02G-BXW-54" value="" style="rounded=0;whiteSpace=wrap;html=1;" parent="1" vertex="1">
          <mxGeometry x="640" y="96" width="60" height="60" as="geometry" />
        </mxCell>
        <mxCell id="P3pSzVhwm7MZR02G-BXW-55" value="" style="rounded=0;whiteSpace=wrap;html=1;" parent="1" vertex="1">
          <mxGeometry x="700" y="96" width="60" height="60" as="geometry" />
        </mxCell>
        <mxCell id="P3pSzVhwm7MZR02G-BXW-56" value="" style="endArrow=classic;html=1;rounded=0;" parent="1" edge="1">
          <mxGeometry width="50" height="50" relative="1" as="geometry">
            <mxPoint x="68" y="189" as="sourcePoint" />
            <mxPoint x="68" y="159" as="targetPoint" />
          </mxGeometry>
        </mxCell>
        <mxCell id="P3pSzVhwm7MZR02G-BXW-57" value="0x61fe40" style="text;html=1;strokeColor=none;fillColor=none;align=center;verticalAlign=middle;whiteSpace=wrap;rounded=0;dashed=1;" parent="1" vertex="1">
          <mxGeometry x="40" y="184" width="60" height="30" as="geometry" />
        </mxCell>
        <mxCell id="P3pSzVhwm7MZR02G-BXW-58" value="" style="endArrow=classic;html=1;rounded=0;" parent="1" edge="1">
          <mxGeometry width="50" height="50" relative="1" as="geometry">
            <mxPoint x="548" y="189" as="sourcePoint" />
            <mxPoint x="548" y="159" as="targetPoint" />
          </mxGeometry>
        </mxCell>
        <mxCell id="P3pSzVhwm7MZR02G-BXW-59" value="0x61fe48" style="text;html=1;strokeColor=none;fillColor=none;align=center;verticalAlign=middle;whiteSpace=wrap;rounded=0;dashed=1;" parent="1" vertex="1">
          <mxGeometry x="520" y="184" width="60" height="30" as="geometry" />
        </mxCell>
        <mxCell id="P3pSzVhwm7MZR02G-BXW-60" value="" style="rounded=0;whiteSpace=wrap;html=1;" parent="1" vertex="1">
          <mxGeometry x="760" y="96" width="60" height="60" as="geometry" />
        </mxCell>
        <mxCell id="P3pSzVhwm7MZR02G-BXW-61" value="" style="rounded=0;whiteSpace=wrap;html=1;" parent="1" vertex="1">
          <mxGeometry x="820" y="96" width="60" height="60" as="geometry" />
        </mxCell>
        <mxCell id="P3pSzVhwm7MZR02G-BXW-62" value="" style="rounded=0;whiteSpace=wrap;html=1;" parent="1" vertex="1">
          <mxGeometry x="880" y="96" width="60" height="60" as="geometry" />
        </mxCell>
        <mxCell id="P3pSzVhwm7MZR02G-BXW-63" value="" style="endArrow=classic;html=1;rounded=0;" parent="1" edge="1">
          <mxGeometry width="50" height="50" relative="1" as="geometry">
            <mxPoint x="70" y="60" as="sourcePoint" />
            <mxPoint x="70" y="90" as="targetPoint" />
          </mxGeometry>
        </mxCell>
        <mxCell id="P3pSzVhwm7MZR02G-BXW-64" value="age" style="text;html=1;strokeColor=none;fillColor=none;align=center;verticalAlign=middle;whiteSpace=wrap;rounded=0;dashed=1;" parent="1" vertex="1">
          <mxGeometry x="40" y="34" width="60" height="30" as="geometry" />
        </mxCell>
        <mxCell id="P3pSzVhwm7MZR02G-BXW-67" value="" style="endArrow=classic;html=1;rounded=0;" parent="1" edge="1">
          <mxGeometry width="50" height="50" relative="1" as="geometry">
            <mxPoint x="550" y="59" as="sourcePoint" />
            <mxPoint x="550" y="89" as="targetPoint" />
          </mxGeometry>
        </mxCell>
        <mxCell id="P3pSzVhwm7MZR02G-BXW-68" value="height" style="text;html=1;strokeColor=none;fillColor=none;align=center;verticalAlign=middle;whiteSpace=wrap;rounded=0;dashed=1;" parent="1" vertex="1">
          <mxGeometry x="520" y="33" width="60" height="30" as="geometry" />
        </mxCell>
        <mxCell id="P3pSzVhwm7MZR02G-BXW-69" value="" style="rounded=0;whiteSpace=wrap;html=1;" parent="1" vertex="1">
          <mxGeometry x="940" y="96" width="60" height="60" as="geometry" />
        </mxCell>
        <mxCell id="P3pSzVhwm7MZR02G-BXW-71" value="padding" style="text;html=1;strokeColor=#b85450;fillColor=#f8cecc;align=center;verticalAlign=middle;whiteSpace=wrap;rounded=0;dashed=1;" parent="1" vertex="1">
          <mxGeometry x="370" y="21" width="60" height="30" as="geometry" />
        </mxCell>
        <mxCell id="P3pSzVhwm7MZR02G-BXW-73" value="" style="shape=curlyBracket;whiteSpace=wrap;html=1;rounded=1;dashed=1;rotation=90;" parent="1" vertex="1">
          <mxGeometry x="380" y="-50" width="40" height="240" as="geometry" />
        </mxCell>
        <mxCell id="P3pSzVhwm7MZR02G-BXW-76" value="" style="rounded=0;whiteSpace=wrap;html=1;" parent="1" vertex="1">
          <mxGeometry x="40" y="356" width="60" height="60" as="geometry" />
        </mxCell>
        <mxCell id="P3pSzVhwm7MZR02G-BXW-77" value="" style="rounded=0;whiteSpace=wrap;html=1;" parent="1" vertex="1">
          <mxGeometry x="100" y="356" width="60" height="60" as="geometry" />
        </mxCell>
        <mxCell id="P3pSzVhwm7MZR02G-BXW-78" value="" style="rounded=0;whiteSpace=wrap;html=1;" parent="1" vertex="1">
          <mxGeometry x="160" y="356" width="60" height="60" as="geometry" />
        </mxCell>
        <mxCell id="P3pSzVhwm7MZR02G-BXW-79" value="" style="rounded=0;whiteSpace=wrap;html=1;" parent="1" vertex="1">
          <mxGeometry x="220" y="356" width="60" height="60" as="geometry" />
        </mxCell>
        <mxCell id="P3pSzVhwm7MZR02G-BXW-84" value="" style="rounded=0;whiteSpace=wrap;html=1;" parent="1" vertex="1">
          <mxGeometry x="280" y="356" width="60" height="60" as="geometry" />
        </mxCell>
        <mxCell id="P3pSzVhwm7MZR02G-BXW-85" value="" style="rounded=0;whiteSpace=wrap;html=1;" parent="1" vertex="1">
          <mxGeometry x="340" y="356" width="60" height="60" as="geometry" />
        </mxCell>
        <mxCell id="P3pSzVhwm7MZR02G-BXW-86" value="" style="rounded=0;whiteSpace=wrap;html=1;" parent="1" vertex="1">
          <mxGeometry x="400" y="356" width="60" height="60" as="geometry" />
        </mxCell>
        <mxCell id="P3pSzVhwm7MZR02G-BXW-87" value="" style="rounded=0;whiteSpace=wrap;html=1;" parent="1" vertex="1">
          <mxGeometry x="460" y="356" width="60" height="60" as="geometry" />
        </mxCell>
        <mxCell id="P3pSzVhwm7MZR02G-BXW-88" value="" style="endArrow=classic;html=1;rounded=0;" parent="1" edge="1">
          <mxGeometry width="50" height="50" relative="1" as="geometry">
            <mxPoint x="68" y="449" as="sourcePoint" />
            <mxPoint x="68" y="419" as="targetPoint" />
          </mxGeometry>
        </mxCell>
        <mxCell id="P3pSzVhwm7MZR02G-BXW-89" value="0x61fe48" style="text;html=1;strokeColor=none;fillColor=none;align=center;verticalAlign=middle;whiteSpace=wrap;rounded=0;dashed=1;" parent="1" vertex="1">
          <mxGeometry x="40" y="444" width="60" height="30" as="geometry" />
        </mxCell>
        <mxCell id="P3pSzVhwm7MZR02G-BXW-90" value="" style="endArrow=classic;html=1;rounded=0;" parent="1" edge="1">
          <mxGeometry width="50" height="50" relative="1" as="geometry">
            <mxPoint x="308" y="449" as="sourcePoint" />
            <mxPoint x="308" y="419" as="targetPoint" />
          </mxGeometry>
        </mxCell>
        <mxCell id="P3pSzVhwm7MZR02G-BXW-91" value="0x61fe4c" style="text;html=1;strokeColor=none;fillColor=none;align=center;verticalAlign=middle;whiteSpace=wrap;rounded=0;dashed=1;" parent="1" vertex="1">
          <mxGeometry x="280" y="444" width="60" height="30" as="geometry" />
        </mxCell>
        <mxCell id="P3pSzVhwm7MZR02G-BXW-95" value="" style="endArrow=classic;html=1;rounded=0;" parent="1" edge="1">
          <mxGeometry width="50" height="50" relative="1" as="geometry">
            <mxPoint x="70" y="320" as="sourcePoint" />
            <mxPoint x="70" y="350" as="targetPoint" />
          </mxGeometry>
        </mxCell>
        <mxCell id="P3pSzVhwm7MZR02G-BXW-96" value="age" style="text;html=1;strokeColor=none;fillColor=none;align=center;verticalAlign=middle;whiteSpace=wrap;rounded=0;dashed=1;" parent="1" vertex="1">
          <mxGeometry x="40" y="294" width="60" height="30" as="geometry" />
        </mxCell>
        <mxCell id="P3pSzVhwm7MZR02G-BXW-97" value="" style="endArrow=classic;html=1;rounded=0;" parent="1" edge="1">
          <mxGeometry width="50" height="50" relative="1" as="geometry">
            <mxPoint x="310" y="319" as="sourcePoint" />
            <mxPoint x="310" y="349" as="targetPoint" />
          </mxGeometry>
        </mxCell>
        <mxCell id="P3pSzVhwm7MZR02G-BXW-98" value="height" style="text;html=1;strokeColor=none;fillColor=none;align=center;verticalAlign=middle;whiteSpace=wrap;rounded=0;dashed=1;" parent="1" vertex="1">
          <mxGeometry x="280" y="293" width="60" height="30" as="geometry" />
        </mxCell>
      </root>
    </mxGraphModel>
  </diagram>
</mxfile>
